<svg width="46" height="46" viewBox="0 0 46 46" fill="none" xmlns="http://www.w3.org/2000/svg">
<path d="M33.448 33.203C34.4238 34.1744 34.4238 35.7574 33.448 36.7288L29.8583 40.3213L29.8634 40.3162C28.9133 41.267 27.2802 42.9014 24.9692 45.2091C23.8804 46.273 22.1189 46.2627 21.0405 45.1834L0.816516 24.9591C0.557766 24.7019 0.352411 24.396 0.212278 24.0591C0.0721442 23.7221 0 23.3608 0 22.9958C0 22.6308 0.0721442 22.2694 0.212278 21.9325C0.352411 21.5955 0.557766 21.2897 0.816516 21.0325L21.0353 0.813316C21.5566 0.292511 22.2631 0 22.9997 0C23.7363 0 24.4428 0.292511 24.964 0.813316L33.4429 9.29364C34.4187 10.265 34.4187 11.848 33.4429 12.8194C32.9742 13.2861 32.34 13.5481 31.6788 13.5481C31.0177 13.5481 30.3834 13.2861 29.9147 12.8194L23.4953 6.38463C23.2282 6.11737 22.8122 6.11737 22.5452 6.38463L6.39376 22.5332C6.12671 22.8005 6.12671 23.2168 6.39376 23.484L22.54 39.6326C22.5606 39.6532 22.5863 39.6686 22.6068 39.6892C22.8739 39.8999 23.2436 39.8793 23.4901 39.6326L29.9199 33.203C30.8956 32.2265 32.4774 32.2265 33.448 33.203ZM17.6458 22.893C17.6458 21.4454 18.221 20.0571 19.2448 19.0334C20.2686 18.0098 21.6571 17.4347 23.105 17.4347C24.5528 17.4347 25.9414 18.0098 26.9651 19.0334C27.9889 20.0571 28.5641 21.4454 28.5641 22.893C28.5641 24.3406 27.9889 25.7289 26.9651 26.7526C25.9414 27.7762 24.5528 28.3512 23.105 28.3512C21.6571 28.3512 20.2686 27.7762 19.2448 26.7526C18.221 25.7289 17.6458 24.3406 17.6458 22.893ZM45.1828 24.8769L38.8712 31.1626C37.8955 32.134 36.3137 32.134 35.3431 31.1575C35.1111 30.9263 34.927 30.6516 34.8014 30.3491C34.6758 30.0466 34.6111 29.7222 34.6111 29.3946C34.6111 29.067 34.6758 28.7426 34.8014 28.4401C34.927 28.1375 35.1111 27.8628 35.3431 27.6317L39.6056 23.371C39.8727 23.1037 39.8727 22.6874 39.6056 22.4202L35.4047 18.2211C35.1727 17.99 34.9886 17.7153 34.863 17.4127C34.7374 17.1102 34.6728 16.7858 34.6728 16.4582C34.6728 16.1306 34.7374 15.8062 34.863 15.5037C34.9886 15.2012 35.1727 14.9265 35.4047 14.6953C35.8734 14.2286 36.5076 13.9667 37.1688 13.9667C37.8299 13.9667 38.4642 14.2286 38.9328 14.6953L45.188 20.9502C45.4458 21.2081 45.6503 21.5143 45.7896 21.8514C45.929 22.1885 46.0005 22.5498 46 22.9146C45.9995 23.2794 45.9271 23.6405 45.7869 23.9773C45.6466 24.314 45.4414 24.6197 45.1828 24.8769Z" fill="#BF0F26"/>
</svg>
