<svg width="33" height="32" viewBox="0 0 33 32" fill="none" xmlns="http://www.w3.org/2000/svg">
<path d="M1 1H11.3333V31L4.44444 27.25M32 1H23.3889C22.9321 1 22.4941 1.19754 22.1711 1.54917C21.8481 1.9008 21.6667 2.37772 21.6667 2.875V14.125C21.6667 14.6223 21.8481 15.0992 22.1711 15.4508C22.4941 15.8025 22.9321 16 23.3889 16H28.2903C28.5369 16 28.7805 16.0577 29.0048 16.1691C29.2291 16.2804 29.4288 16.4429 29.5904 16.6456C29.752 16.8482 29.8718 17.0863 29.9417 17.3437C30.0116 17.601 30.0298 17.8718 29.9953 18.1375L28.5556 29.125L21.6667 31" stroke="#E51D37" stroke-width="2" stroke-linecap="round" stroke-linejoin="round"/>
</svg>
