<svg width="37" height="35" viewBox="0 0 37 35" fill="none" xmlns="http://www.w3.org/2000/svg">
<path d="M33.9167 4.66667H23.125V0H33.9167V4.66667ZM36.5776 28C35.8962 31.0263 33.4495 35 28.7135 35C23.9745 35 20.1357 30.9657 20.1357 21.7583C20.1357 12.635 23.7201 7.945 28.5625 7.945C33.3139 7.945 36.2153 12.103 36.8489 18.2723C36.9692 19.453 37.017 21.0443 36.9954 23.2657H24.6204C24.8208 30.758 29.99 30.9937 31.6936 28H36.5776ZM24.7283 18.6667H32.3827C32.2208 15.057 30.6314 13.489 28.564 13.489C26.3039 13.489 25.0536 15.281 24.7283 18.6667ZM9.96842 34.972H0V0.0489998H10.7192C19.1614 0.238 19.3217 12.7517 14.9125 16.163C20.2483 19.103 20.4271 34.972 9.96842 34.972ZM4.625 14H10.1503C14.0168 14 14.6304 7 9.66933 7H4.625V14ZM9.85279 21H4.625V28.0373H9.77571C14.4855 28.0373 14.1972 21 9.85279 21Z" fill="#E51D37"/>
</svg>
