<svg width="37" height="37" viewBox="0 0 37 37" fill="none" xmlns="http://www.w3.org/2000/svg">
<path d="M7.70833 8.47915C7.70833 7.04808 8.27682 5.67563 9.28873 4.66372C10.3006 3.6518 11.6731 3.08331 13.1042 3.08331H18.5V13.875H13.1042C11.6731 13.875 10.3006 13.3065 9.28873 12.2946C8.27682 11.2827 7.70833 9.91021 7.70833 8.47915Z" stroke="#E51D37" stroke-width="1.4" stroke-linecap="round" stroke-linejoin="round"/>
<path d="M18.5 3.08331H23.8958C24.6044 3.08331 25.3061 3.22288 25.9607 3.49405C26.6154 3.76521 27.2102 4.16267 27.7113 4.66372C28.2123 5.16477 28.6098 5.7596 28.8809 6.41425C29.1521 7.0689 29.2917 7.77056 29.2917 8.47915C29.2917 9.18774 29.1521 9.88939 28.8809 10.544C28.6098 11.1987 28.2123 11.7935 27.7113 12.2946C27.2102 12.7956 26.6154 13.1931 25.9607 13.4642C25.3061 13.7354 24.6044 13.875 23.8958 13.875H18.5V3.08331Z" stroke="#E51D37" stroke-width="1.4" stroke-linecap="round" stroke-linejoin="round"/>
<path d="M18.5 19.2708C18.5 18.5622 18.6396 17.8606 18.9107 17.2059C19.1819 16.5513 19.5794 15.9565 20.0804 15.4554C20.5815 14.9544 21.1763 14.5569 21.8309 14.2857C22.4856 14.0146 23.1872 13.875 23.8958 13.875C24.6044 13.875 25.3061 14.0146 25.9607 14.2857C26.6154 14.5569 27.2102 14.9544 27.7113 15.4554C28.2123 15.9565 28.6098 16.5513 28.8809 17.2059C29.1521 17.8606 29.2917 18.5622 29.2917 19.2708C29.2917 19.9794 29.1521 20.6811 28.8809 21.3357C28.6098 21.9904 28.2123 22.5852 27.7113 23.0863C27.2102 23.5873 26.6154 23.9848 25.9607 24.2559C25.3061 24.5271 24.6044 24.6667 23.8958 24.6667C23.1872 24.6667 22.4856 24.5271 21.8309 24.2559C21.1763 23.9848 20.5815 23.5873 20.0804 23.0863C19.5794 22.5852 19.1819 21.9904 18.9107 21.3357C18.6396 20.6811 18.5 19.9794 18.5 19.2708V19.2708Z" stroke="#E51D37" stroke-width="1.4" stroke-linecap="round" stroke-linejoin="round"/>
<path d="M7.70833 30.0625C7.70833 28.6315 8.27682 27.259 9.28873 26.2471C10.3006 25.2352 11.6731 24.6667 13.1042 24.6667H18.5V30.0625C18.5 31.4936 17.9315 32.866 16.9196 33.878C15.9077 34.8899 14.5352 35.4584 13.1042 35.4584C11.6731 35.4584 10.3006 34.8899 9.28873 33.878C8.27682 32.866 7.70833 31.4936 7.70833 30.0625Z" stroke="#E51D37" stroke-width="1.4" stroke-linecap="round" stroke-linejoin="round"/>
<path d="M7.70833 19.2708C7.70833 17.8398 8.27682 16.4673 9.28873 15.4554C10.3006 14.4435 11.6731 13.875 13.1042 13.875H18.5V24.6667H13.1042C11.6731 24.6667 10.3006 24.0982 9.28873 23.0863C8.27682 22.0743 7.70833 20.7019 7.70833 19.2708Z" stroke="#E51D37" stroke-width="1.4" stroke-linecap="round" stroke-linejoin="round"/>
</svg>
