<svg width="37" height="37" viewBox="0 0 37 37" fill="none" xmlns="http://www.w3.org/2000/svg">
<path d="M34.526 7.1602C36.1765 8.9967 37 11.1393 37 13.5879C37 22.4626 31.555 25.0643 26.4383 25.8296C27.0985 26.9008 27.2636 28.1252 27.2636 29.3495V35.6225C27.2636 36.3877 26.7684 36.8468 26.1082 36.8468C25.9341 36.8491 25.7613 36.819 25.6 36.7583C25.4387 36.6975 25.2922 36.6074 25.1691 36.4933C25.0459 36.3791 24.9488 36.2433 24.8833 36.0937C24.8178 35.9441 24.7853 35.7839 24.7877 35.6225V29.3495C24.8747 28.7081 24.8008 28.0568 24.5717 27.4463C24.3427 26.8357 23.9647 26.2825 23.4673 25.8296L24.2926 23.84C29.4093 23.2279 34.691 21.6974 34.691 13.4349C34.691 11.4454 33.8658 9.60886 32.3803 8.07845L32.0502 6.8558C32.6778 5.38938 32.7355 3.76613 32.2134 2.26456C31.3899 2.41592 29.7394 2.72369 26.9353 4.56018L25.9431 4.71154C22.0449 3.79374 17.9611 3.79374 14.0628 4.71154L13.0707 4.56018C10.1033 2.87673 8.45275 2.41761 7.62566 2.41761C7.13049 3.94802 7.13049 5.62979 7.7889 7.00884L7.4606 8.23149C5.81005 9.7619 4.98478 11.7514 4.98478 13.5879C4.98478 21.6974 9.93643 23.3809 15.3814 23.9931L16.0416 25.9826C15.0513 26.9008 14.5562 28.1252 14.7212 29.3495V35.7756C14.7236 35.937 14.6912 36.0972 14.6257 36.2467C14.5602 36.3963 14.463 36.5322 14.3399 36.6463C14.2168 36.7605 14.0703 36.8506 13.909 36.9113C13.7476 36.972 13.5748 37.0021 13.4008 36.9999C13.2267 37.0021 13.0539 36.972 12.8926 36.9113C12.7313 36.8506 12.5847 36.7605 12.4616 36.6463C12.3385 36.5322 12.2414 36.3963 12.1759 36.2467C12.1104 36.0972 12.0779 35.937 12.0803 35.7756V32.2573C6.63533 33.3286 4.48961 30.7269 2.83906 28.739C2.01379 27.8208 1.35357 27.0556 0.528294 26.9025C0.365053 26.7495 -0.131926 26.1373 0.0331288 25.5252C0.198184 24.913 0.858404 24.4539 1.52044 24.7599C3.17099 25.066 4.1595 26.2904 5.14802 27.3616C6.63533 29.1981 8.12082 30.8799 12.5755 29.9633V29.3512C12.4123 28.1269 12.7405 26.9025 13.4008 25.8312C8.44912 24.913 2.67401 22.3113 2.67401 13.5896C2.67401 11.141 3.49928 8.99838 5.14983 7.16188C4.65467 5.02099 4.81972 2.72537 5.645 0.888875L6.47027 0.27671C6.80038 0.123669 9.11115 -0.335455 13.8941 2.41761C17.8488 1.49948 21.9866 1.49948 25.9413 2.41761C30.5647 -0.490178 33.0405 -0.0327363 33.3706 0.121987L34.1959 0.734152C35.0212 2.87673 35.1862 5.01931 34.526 7.1602Z" fill="#E51D37"/>
</svg>
