<svg width="39" height="39" viewBox="0 0 39 39" fill="none" xmlns="http://www.w3.org/2000/svg">
<path d="M11.0067 34.3524C10.1529 34.6713 9.22563 34.7387 8.33473 34.5467C7.44382 34.3547 6.62664 33.9113 5.98 33.2691C5.53438 32.8289 5.18121 32.3041 4.94122 31.7256C4.70123 31.147 4.57927 30.5263 4.5825 29.8999C4.58729 29.4597 4.65291 29.0222 4.7775 28.5999C4.30786 27.7217 3.9442 26.7907 3.69417 25.8266C2.69858 27.1998 2.2409 28.8903 2.40774 30.5783C2.57457 32.2662 3.35434 33.8344 4.5995 34.9861C5.84465 36.1378 7.46879 36.7932 9.16457 36.8281C10.8603 36.8631 12.5101 36.2752 13.8017 35.1758C12.8411 35.0111 11.9031 34.7348 11.0067 34.3524ZM19.9442 29.9866C18.379 30.859 16.5721 31.1977 14.7972 30.9514C13.0223 30.7051 11.376 29.8873 10.1075 28.6216C8.84035 27.3588 8.02025 25.7167 7.7719 23.9451C7.52356 22.1734 7.86057 20.3692 8.73167 18.8066C8.49443 17.7936 8.36013 16.7592 8.33084 15.7191C6.48742 17.6858 5.48152 20.2926 5.526 22.9878C5.57049 25.683 6.66186 28.2551 8.56917 30.1599C10.4816 32.0612 13.0561 33.148 15.7524 33.1924C18.4488 33.2369 21.0576 32.2355 23.0317 30.3983C21.9914 30.364 20.9571 30.2261 19.9442 29.9866Z" fill="#BF0F26"/>
<path d="M23.465 28.3941C20.4329 28.3896 17.4961 27.3341 15.1549 25.4074C12.8137 23.4806 11.2128 20.8019 10.6249 17.8273C10.037 14.8527 10.4986 11.7663 11.9308 9.09383C13.3631 6.42133 15.6776 4.32801 18.48 3.17041C21.2824 2.01281 24.3995 1.86253 27.3003 2.74517C30.2011 3.62781 32.7062 5.48878 34.389 8.0111C36.0717 10.5334 36.828 13.5611 36.529 16.5784C36.23 19.5958 34.8942 22.4161 32.7492 24.5591C31.5294 25.7769 30.0817 26.7424 28.4887 27.4004C26.8957 28.0584 25.1886 28.3961 23.465 28.3941ZM23.465 4.33331C22.0258 4.33189 20.6004 4.61413 19.2703 5.16391C17.9403 5.71369 16.7316 6.52022 15.7134 7.53739C14.6952 8.55457 13.8875 9.76244 13.3364 11.092C12.7853 12.4215 12.5017 13.8466 12.5017 15.2858C12.5019 16.7264 12.7894 18.1526 13.3475 19.4807C13.9055 20.8089 14.7229 22.0124 15.7517 23.0208C17.8076 25.0762 20.5958 26.2309 23.5029 26.2309C26.4101 26.2309 29.1982 25.0762 31.2542 23.0208C32.7853 21.4859 33.8265 19.5311 34.2458 17.404C34.6651 15.2769 34.4437 13.0732 33.6095 11.072C32.7754 9.07084 31.3662 7.36225 29.5603 6.16264C27.7544 4.96303 25.633 4.32637 23.465 4.33331Z" fill="#BF0F26"/>
</svg>
