<svg width="28" height="20" viewBox="0 0 28 20" fill="none" xmlns="http://www.w3.org/2000/svg">
<path d="M28 1.66686V18.3334C28 19.2792 27.2431 20 26.25 20H24.5V4.87433L14 12.0576L3.5 4.87433V20H1.75C0.756875 20 0 19.2792 0 18.3334V1.66686C0 1.19353 0.18725 0.776868 0.501375 0.481871C0.664976 0.325979 0.859819 0.203005 1.07432 0.120261C1.28882 0.0375164 1.5186 -0.00330984 1.75 0.000209644H2.33363L14 8.05596L25.6664 0.000209644H26.25C26.747 0.000209644 27.1845 0.178541 27.4986 0.481871C27.8127 0.776868 28 1.19353 28 1.66686Z" fill="#E51D37"/>
</svg>
